<?xml version="1.0" standalone="no"?>
<!DOCTYPE svg PUBLIC "-//W3C//DTD SVG 20010904//EN"
 "http://www.w3.org/TR/2001/REC-SVG-20010904/DTD/svg10.dtd">
<svg version="1.0" xmlns="http://www.w3.org/2000/svg"
 width="300px" height="50px" viewBox="0 0 712.000000 400.000000"
 preserveAspectRatio="xMidYMid meet">

<g transform="translate(0.000000,400.000000) scale(0.100000,-0.100000)"
fill="#3f1abf" stroke="none">
<path d="M585 3098 c-57 -21 -144 -79 -175 -116 -17 -20 -43 -62 -58 -92 l-27
-55 0 -810 c0 -858 0 -852 47 -924 13 -19 28 -42 34 -52 23 -39 107 -96 172
-118 l67 -22 790 3 790 3 66 33 c80 39 150 110 187 190 l27 57 0 810 0 810
-36 75 c-45 92 -102 149 -191 190 l-68 30 -797 -1 c-541 0 -808 -4 -828 -11z
m1619 -23 c166 -43 284 -205 274 -375 l-3 -55 -120 0 -120 0 -3 63 c-3 56 -6
66 -38 97 l-35 35 -740 0 c-812 0 -782 2 -814 -60 -13 -25 -15 -126 -15 -757
0 -673 1 -731 18 -763 9 -19 28 -40 42 -47 36 -18 1484 -18 1520 0 13 7 35 28
47 46 23 33 23 40 23 302 l0 269 -265 0 -265 0 0 125 0 125 385 0 386 0 -3
-427 -3 -428 -29 -62 c-32 -70 -97 -138 -167 -174 -41 -21 -61 -23 -294 -30
-137 -4 -486 -8 -775 -8 -592 -1 -626 2 -708 63 -58 42 -110 106 -131 160 -23
60 -29 1590 -7 1666 36 120 148 218 275 240 25 4 375 8 776 9 626 1 739 -1
789 -14z m-1322 -267 c1 -2 5 -138 8 -303 l5 -300 33 -17 c53 -26 85 -9 125
65 19 34 52 94 74 132 87 151 159 280 217 388 l20 37 289 0 290 0 -6 -42 c-3
-31 -31 -86 -98 -196 -124 -202 -210 -345 -250 -412 -17 -30 -40 -66 -50 -79
-12 -15 -19 -40 -19 -68 0 -44 34 -109 165 -318 17 -27 64 -106 105 -175 40
-69 91 -151 112 -184 21 -32 38 -69 38 -82 l0 -24 -345 0 -345 0 0 356 0 356
-34 34 -34 34 -111 0 c-116 0 -162 -12 -175 -45 -3 -9 -6 -178 -6 -376 l0
-359 -107 0 c-117 1 -135 7 -153 54 -6 18 -10 273 -10 746 l0 718 26 31 c26
31 26 31 130 31 57 0 105 -1 106 -2z m438 -19 c0 -12 -15 -46 -34 -77 -40 -67
-71 -123 -121 -212 -19 -36 -46 -83 -58 -105 -13 -22 -38 -67 -56 -100 -40
-75 -58 -95 -87 -95 -53 0 -54 8 -54 321 l0 289 205 0 c202 0 205 0 205 -21z
m839 -4 c16 -8 32 -22 37 -32 4 -10 10 -159 12 -330 l4 -313 -266 0 -266 0 0
-155 0 -155 265 0 265 0 0 -256 0 -256 -30 -29 c-29 -29 -31 -30 -122 -27
l-93 3 -3 29 c-2 16 -18 50 -35 77 -44 66 -59 91 -161 264 -49 83 -103 173
-121 200 -76 120 -105 175 -105 203 0 27 72 154 227 400 23 37 46 74 49 82 7
15 40 69 110 180 20 32 34 67 34 85 0 18 3 35 7 38 13 14 163 7 192 -8z m319
-427 l2 -248 -120 0 -120 0 0 250 0 251 118 -3 117 -3 3 -247z m-1274 -394
c14 -13 16 -61 16 -375 l0 -359 -155 0 -155 0 0 357 c0 318 2 358 17 375 14
16 33 18 139 18 98 0 126 -3 138 -16z"/>
<path d="M2733 2855 c-31 -22 -47 -78 -34 -116 11 -33 1 -66 -25 -82 -8 -4
-14 -15 -14 -23 0 -25 30 -74 45 -74 19 0 19 -4 -1 -42 -11 -22 -15 -48 -12
-85 4 -50 3 -55 -19 -64 -31 -11 -33 -68 -3 -76 17 -4 20 -14 20 -55 0 -35 -6
-58 -20 -75 -25 -32 -25 -44 1 -77 11 -14 16 -26 10 -26 -20 0 -34 -45 -21
-69 10 -20 17 -22 113 -19 l102 3 3 33 c2 18 -2 39 -8 47 -7 9 -7 15 -1 19 6
4 10 45 10 92 0 66 -3 86 -15 91 -13 5 -13 8 2 24 11 12 15 30 12 54 -2 19 -1
35 3 35 4 0 15 7 23 16 21 21 20 70 -1 92 -10 10 -28 33 -41 50 l-23 32 21 22
c29 32 26 67 -8 80 l-28 11 28 29 c78 83 -27 217 -119 153z m107 -27 c23 -25
27 -83 7 -109 -34 -45 -89 -43 -121 3 -37 53 -2 128 59 128 22 0 41 -8 55 -22z
m-35 -180 c39 -2 51 -7 53 -21 7 -35 -17 -47 -88 -47 -61 0 -69 2 -84 25 -18
27 -14 45 8 45 8 0 16 10 20 23 l6 22 18 -22 c13 -16 30 -23 67 -25z m29 -113
c14 -13 26 -33 26 -43 0 -11 9 -22 21 -25 16 -4 20 -12 17 -39 l-3 -33 -92 -3
-93 -3 1 53 c1 66 8 87 40 104 35 19 53 17 83 -11z m-124 -191 c11 -12 11 -18
-2 -31 -19 -18 -38 -10 -38 16 0 33 20 40 40 15z m150 -19 l0 -35 -65 0 -65 0
0 35 0 35 65 0 65 0 0 -35z m-117 -59 c4 -10 24 -16 59 -18 52 -3 53 -4 56
-35 l3 -33 -75 0 -76 0 0 50 c0 36 4 50 14 50 8 0 16 -7 19 -14z m-13 -131
l40 -25 38 25 c20 14 40 25 44 25 5 0 8 -18 8 -40 l0 -40 -45 0 c-33 0 -45 -4
-45 -14 0 -10 14 -16 43 -18 39 -3 42 -5 42 -33 l0 -30 -90 0 c-87 0 -90 1
-93 24 -4 28 12 40 53 41 l30 1 -42 25 c-41 25 -56 58 -36 77 9 10 9 10 53
-18z m60 16 c0 -19 -22 -23 -38 -7 -15 15 -14 16 11 16 15 0 27 -4 27 -9z"/>
<path d="M2768 2789 c-25 -43 -23 -49 17 -49 19 0 35 5 35 10 0 11 -28 70 -33
70 -1 0 -10 -14 -19 -31z m27 -19 c3 -5 1 -10 -4 -10 -6 0 -11 5 -11 10 0 6 2
10 4 10 3 0 8 -4 11 -10z"/>
<path d="M2734 2473 c2 -5 21 -17 40 -27 36 -19 37 -19 51 0 23 30 18 34 -41
34 -30 0 -53 -3 -50 -7z m76 -13 c0 -5 -5 -10 -11 -10 -5 0 -7 5 -4 10 3 6 8
10 11 10 2 0 4 -4 4 -10z"/>
<path d="M5700 2859 c-53 -12 -90 -62 -90 -121 0 -41 5 -54 33 -84 102 -112
286 14 207 143 -33 55 -86 77 -150 62z m89 -23 c90 -47 75 -177 -24 -205 -96
-27 -177 87 -119 166 38 51 91 65 143 39z"/>
<path d="M5182 2790 c-56 -33 -106 -69 -112 -79 -13 -26 -13 -534 0 -583 23
-81 108 -147 200 -155 49 -5 60 -3 79 16 20 20 21 30 21 250 l0 230 75 41 c99
55 117 89 74 144 -18 23 -28 26 -79 26 -66 0 -70 5 -70 79 0 52 -28 91 -66 91
-11 0 -66 -27 -122 -60z m158 20 c15 -15 20 -33 20 -74 0 -31 5 -58 13 -64 7
-6 39 -12 72 -14 55 -3 60 -5 69 -31 14 -39 2 -54 -80 -103 l-69 -41 -5 -230
c-6 -262 -6 -263 -77 -263 -88 0 -172 65 -198 153 -18 62 -22 511 -4 550 12
27 184 135 217 136 12 1 31 -8 42 -19z"/>
<path d="M3260 2811 c-149 -48 -258 -174 -291 -338 -14 -70 -2 -163 31 -238
27 -60 97 -141 155 -179 93 -62 137 -70 351 -71 175 0 194 2 213 19 20 18 21
28 21 221 0 248 7 235 -137 235 -136 0 -132 6 -135 -195 -3 -136 -5 -160 -19
-163 -10 -2 -25 16 -44 50 -26 50 -52 95 -144 256 -77 134 -91 164 -86 173 4
5 116 9 265 9 254 0 260 0 280 22 16 18 20 35 20 98 0 63 -4 80 -20 98 -20 21
-28 22 -213 21 -155 0 -203 -3 -247 -18z m454 -23 c10 -14 16 -44 16 -78 0
-34 -6 -64 -16 -78 -15 -22 -18 -22 -279 -22 -253 0 -265 -1 -275 -20 -9 -16
11 -57 123 -257 74 -130 141 -241 150 -247 11 -7 20 -6 31 3 13 11 16 39 16
165 0 192 -2 190 114 195 80 3 86 2 110 -23 26 -25 26 -26 26 -199 0 -161 -2
-176 -21 -201 l-20 -26 -168 0 c-183 0 -249 11 -333 57 -130 71 -220 238 -205
383 17 162 108 282 264 346 54 22 70 24 255 24 192 0 197 -1 212 -22z"/>
<path d="M4585 2675 c-22 -21 -25 -33 -25 -99 l0 -75 -47 -7 c-259 -37 -310
-376 -73 -488 41 -19 62 -21 256 -21 196 0 213 1 234 20 21 19 21 24 18 265
-3 276 -4 278 -82 354 -51 49 -122 76 -200 76 -47 0 -61 -4 -81 -25z m191 -14
c58 -26 106 -72 134 -128 24 -47 25 -54 25 -269 0 -204 -2 -224 -19 -243 -18
-20 -29 -21 -206 -21 -254 0 -314 20 -377 128 -23 39 -28 59 -28 112 1 124 82
217 207 236 63 10 68 17 68 97 0 93 12 107 94 107 38 0 77 -8 102 -19z"/>
<path d="M4590 2401 c-5 -11 -10 -79 -10 -151 0 -136 8 -170 39 -170 26 0 204
293 196 321 -6 17 -17 19 -110 19 -93 0 -105 -2 -115 -19z m206 -4 c3 -8 -25
-63 -62 -123 -37 -60 -75 -124 -86 -141 -11 -18 -26 -33 -34 -33 -19 0 -21
296 -1 303 6 3 49 6 95 6 60 1 84 -3 88 -12z"/>
<path d="M3892 2657 c-22 -23 -22 -29 -22 -325 0 -287 1 -303 20 -322 27 -27
56 -33 159 -29 136 6 131 -3 131 246 0 126 4 212 11 224 6 11 41 40 79 64 37
25 70 52 74 61 11 30 6 60 -14 82 -20 21 -28 22 -219 22 -194 0 -198 0 -219
-23z m427 -11 c7 -8 11 -27 9 -43 -2 -22 -19 -39 -80 -81 l-78 -53 0 -215 c0
-266 6 -254 -138 -254 -154 0 -142 -28 -142 334 0 221 3 305 12 314 19 19 402
17 417 -2z"/>
<path d="M6170 2671 c-46 -14 -85 -39 -121 -78 -59 -61 -72 -97 -77 -201 -4
-85 -2 -97 18 -124 l22 -30 -21 -19 c-18 -17 -21 -31 -21 -104 0 -134 13 -140
288 -132 156 4 182 7 220 26 107 54 162 153 162 290 0 68 -3 81 -23 103 l-24
25 24 23 c20 19 23 31 23 102 0 70 -3 82 -25 103 -24 25 -25 25 -222 24 -109
0 -209 -4 -223 -8z m440 -30 c5 -11 10 -54 10 -95 0 -69 -2 -77 -25 -92 -31
-20 -40 -17 -179 62 -72 41 -123 64 -138 62 -21 -3 -23 -9 -26 -71 -2 -42 2
-74 9 -83 9 -11 45 -14 167 -14 195 0 192 2 192 -120 0 -73 -4 -94 -26 -138
-14 -29 -44 -68 -67 -87 -64 -55 -114 -65 -318 -65 -224 0 -221 -2 -217 120 3
79 5 85 29 99 26 14 32 12 164 -64 163 -93 168 -93 173 9 2 41 -2 73 -9 82 -9
11 -45 14 -167 14 -195 0 -192 -2 -192 119 1 130 43 206 142 255 51 25 56 26
260 26 195 0 208 -1 218 -19z m-207 -137 c62 -37 114 -68 116 -70 2 -2 -53 -4
-122 -4 l-127 0 0 63 c0 57 5 77 17 77 2 0 55 -30 116 -66z m-63 -334 c0 -49
-4 -70 -12 -70 -7 0 -67 32 -133 70 l-120 70 133 0 132 0 0 -70z"/>
<path d="M5576 2569 l-26 -20 0 -258 0 -258 26 -24 c24 -22 33 -24 134 -24
101 0 110 2 134 24 l26 24 0 257 c0 319 10 300 -157 300 -96 0 -114 -3 -137
-21z m264 -18 c6 -12 10 -117 10 -270 0 -300 10 -281 -142 -281 -146 0 -138
-16 -138 286 0 150 4 253 10 265 10 17 22 19 130 19 108 0 120 -2 130 -19z"/>
<path d="M3517 1939 c-16 -9 -17 -41 -17 -398 0 -317 3 -391 14 -400 9 -8 110
-11 352 -9 l339 3 0 390 0 390 -149 3 c-101 2 -153 -1 -162 -9 -11 -9 -14 -43
-14 -145 0 -74 -3 -134 -8 -134 -4 0 -75 68 -157 151 -83 83 -157 154 -165
159 -9 5 -23 4 -33 -1z m210 -211 l183 -183 0 173 0 172 135 0 135 0 0 -365 0
-365 -325 0 -325 0 0 375 c0 206 3 375 7 375 4 0 90 -82 190 -182z"/>
<path d="M6210 1934 c-8 -3 -39 -13 -68 -22 -62 -19 -154 -89 -193 -146 -47
-70 -64 -132 -64 -236 0 -137 28 -206 122 -296 90 -87 187 -120 329 -111 148
9 271 92 337 227 30 62 32 71 32 180 0 104 -3 121 -27 173 -38 80 -114 157
-195 197 -59 29 -78 34 -163 36 -52 2 -102 1 -110 -2z m198 -38 c108 -29 192
-100 241 -205 23 -49 26 -68 26 -161 0 -99 -2 -110 -32 -171 -63 -127 -174
-199 -319 -207 -97 -5 -173 14 -250 63 -60 39 -93 78 -131 160 -24 52 -28 72
-28 155 0 86 3 101 31 160 17 36 45 82 62 101 35 40 129 94 188 108 59 14 153
12 212 -3z"/>
<path d="M2625 1907 c-3 -6 -4 -183 -3 -392 l3 -380 149 -3 c101 -2 153 1 162
9 11 9 14 78 14 379 0 203 -3 375 -6 384 -5 14 -29 16 -160 16 -115 0 -156 -3
-159 -13z m295 -382 l0 -365 -135 0 -135 0 0 365 0 365 135 0 135 0 0 -365z"/>
<path d="M4775 1907 c-3 -6 -4 -183 -3 -392 l3 -380 132 -3 c190 -4 304 29
385 111 52 53 77 104 95 199 26 143 -11 281 -98 363 -91 85 -194 115 -397 115
-81 0 -114 -4 -117 -13z m320 -32 c126 -33 207 -100 246 -204 17 -47 20 -73
17 -161 -3 -90 -7 -113 -31 -162 -35 -70 -100 -130 -176 -159 -45 -18 -84 -23
-203 -27 l-148 -4 0 366 0 366 118 0 c74 0 140 -6 177 -15z"/>
</g>
</svg>